<?xml version="1.0" encoding="utf-8"?>
<!-- Generator: Adobe Illustrator 16.0.0, SVG Export Plug-In . SVG Version: 6.00 Build 0)  -->
<!DOCTYPE svg PUBLIC "-//W3C//DTD SVG 1.1//EN" "http://www.w3.org/Graphics/SVG/1.1/DTD/svg11.dtd">
<svg version="1.1" id="Layer_1" xmlns="http://www.w3.org/2000/svg" xmlns:xlink="http://www.w3.org/1999/xlink" x="0px" y="0px"
	 width="359.955px" height="471.941px" viewBox="0 0 359.955 471.941" enable-background="new 0 0 359.955 471.941"
	 xml:space="preserve">
<g>
	<g>
		<path fill-rule="evenodd" clip-rule="evenodd" fill="#FFFFFF" d="M1.008,473.941C1.005,316.344,1.005,158.749,1.005,1.076
			c120.226,0,240.458,0,360.819,0c0,157.571,0,315.217,0,472.865C241.575,473.941,121.293,473.941,1.008,473.941z M160.916,163.071
			c-1.239,1.05-2.721,1.918-3.669,3.187c-2.352,3.146-3.726,5.559-1.081,10.326c3.749,6.756,7.389,14.444,3.037,23.048
			c-2.57,5.081-4.266,10.752-5.42,16.352c-0.876,4.247-1.329,9.123-0.088,13.137c1.882,6.091,10.266,7.846,16.413,4.341
			c7.2-4.103,8.394-8.133,3.95-14.765c-2.23-3.331-5.021-6.284-8.261-10.273c5.413-3.607,10.527-8.542,16.626-10.717
			c8.798-3.139,17.828-9.044,27.871-3.074c0.641,0.381,2.063,0.179,2.645-0.314c0.44-0.375,0.117-1.645,0.138-2.517
			c0.16-6.833-0.871-13.963,0.745-20.432c2.882-11.541,8.689-21.868,15.646-31.747c6.837-9.708,14.173-18.513,24.723-24.072
			c3.191-1.682,7.096-2.009,11.568-3.195c-0.858-4.049-1.764-7.831-2.451-11.652c-2.101-11.669-2.311-22.659,6.667-32.419
			c7.473-8.123,13.328-17.722,20.671-25.982c6.675-7.508,12.351-16.322,22.53-20.874c-0.787-1.485-1.658-3.131-2.791-5.269
			c-5.402,5.054-10.751,9.556-15.509,14.615c-8.966,9.533-17.576,19.399-26.361,29.101c-4.343,4.795-10.387,8.87-12.659,14.485
			c-2.265,5.596-0.773,12.712-0.929,19.162c-0.004,0.166,0.001,0.333-0.001,0.5c-0.083,6.638-3.191,9.95-9.703,9.892
			c-11.24-0.1-20.476-5.568-29.19-11.821c-1.758-1.26-2.193-4.587-2.851-7.064c-0.303-1.144,0.328-2.538,0.707-4.881
			c-3.938,5.256-7.767,14.037-9.126,18.425c-0.905,2.922-2.496,5.751-4.295,8.253c-3.338,4.642-7.177,8.921-10.585,13.518
			c-7.92,10.678-15.818,21.376-23.48,32.239c-2.293,3.25-3.773,7.074-5.626,10.636L160.916,163.071z M241.841,248.275
			c-58.553,0-116.579,0-174.639,0c0,56.703,0,113.057,0,169.375c58.434,0,116.462,0,174.639,0
			C241.841,361.068,241.841,304.827,241.841,248.275z"/>
		<path fill-rule="evenodd" clip-rule="evenodd" d="M241.841,248.275c0,56.552,0,112.793,0,169.375c-58.177,0-116.206,0-174.639,0
			c0-56.318,0-112.672,0-169.375C125.262,248.275,183.288,248.275,241.841,248.275z M79.167,404.543c50.111,0,99.804,0,149.487,0
			c0-47.939,0-95.516,0-143.17c-49.969,0-99.662,0-149.487,0C79.167,309.193,79.167,356.652,79.167,404.543z"/>
		<path fill-rule="evenodd" clip-rule="evenodd" d="M160.774,163.218c1.853-3.562,3.333-7.386,5.626-10.636
			c7.662-10.863,15.561-21.561,23.48-32.239c3.408-4.596,7.247-8.875,10.585-13.518c1.799-2.502,3.39-5.331,4.295-8.253
			c1.359-4.388,5.188-13.169,9.126-18.425c-0.379,2.343-1.01,3.737-0.707,4.881c0.657,2.478,1.093,5.804,2.851,7.064
			c8.715,6.252,17.95,11.721,29.19,11.821c6.512,0.058,9.62-3.254,9.703-9.892c0.002-0.167-0.003-0.334,0.001-0.5
			c0.155-6.449-1.336-13.565,0.929-19.162c2.272-5.616,8.316-9.69,12.659-14.485c8.785-9.702,17.396-19.568,26.361-29.101
			c4.758-5.059,10.106-9.561,15.509-14.615c1.133,2.138,2.004,3.784,2.791,5.269c-10.18,4.552-15.855,13.366-22.53,20.874
			c-7.343,8.261-13.198,17.859-20.671,25.982c-8.978,9.76-8.768,20.75-6.667,32.419c0.688,3.821,1.593,7.603,2.451,11.652
			c-4.473,1.186-8.377,1.513-11.568,3.195c-10.55,5.559-17.886,14.364-24.723,24.072c-6.956,9.879-12.764,20.207-15.646,31.747
			c-1.616,6.469-0.585,13.6-0.745,20.432c-0.021,0.872,0.303,2.142-0.138,2.517c-0.581,0.493-2.004,0.695-2.645,0.314
			c-10.043-5.97-19.073-0.064-27.871,3.074c-6.099,2.175-11.213,7.109-16.626,10.717c3.24,3.989,6.03,6.943,8.261,10.273
			c4.444,6.632,3.25,10.662-3.95,14.765c-6.147,3.505-14.531,1.75-16.413-4.341c-1.241-4.015-0.788-8.891,0.088-13.137
			c1.155-5.599,2.851-11.271,5.42-16.352c4.353-8.604,0.712-16.292-3.037-23.048c-2.645-4.767-1.271-7.179,1.081-10.326
			c0.948-1.269,2.43-2.137,3.673-3.191c-7.34,8.776-1.536,16.083,2.719,24.919c1.579-4.14,2.269-7.41,3.934-10.071
			c8.242-13.169,16.446-26.381,25.254-39.169c5.749-8.346,12.718-15.845,18.656-24.072c1.326-1.839,0.626-5.14,0.859-7.769
			c-2.485,0.027-4.998-0.149-7.441,0.183c-0.965,0.131-1.887,1.297-2.635,2.161c-3.823,4.41-7.868,8.665-11.309,13.36
			c-9.214,12.574-18.143,25.358-27.245,38.015C162.968,161.656,161.764,162.36,160.774,163.218z M163.696,199.995
			c2.834-0.227,4.076-0.02,5.027-0.451c7.516-3.409,14.919-7.073,22.492-10.348c2.176-0.94,4.786-1.164,7.206-1.199
			c9.896-0.147,10.139-0.041,11.448-9.63c1.248-9.143,3.927-18.012,8.48-25.706c6.257-10.57,14.389-20.016,21.32-30.214
			c1.046-1.537,0.764-5.131-0.377-6.714c-1.514-2.101-4.446-3.207-6.819-4.658c-5.94-3.634-11.554-2.463-15.708,3.177
			c-1.475,2.001-3.054,3.925-4.575,5.893c-6.592,8.525-13.82,16.644-19.618,25.678c-8.458,13.182-18.394,25.542-24.18,40.325
			C166.728,190.397,165.446,194.795,163.696,199.995z"/>
		<path fill-rule="evenodd" clip-rule="evenodd" fill="#FFFFFF" d="M79.167,404.543c0-47.891,0-95.35,0-143.17
			c49.825,0,99.518,0,149.487,0c0,47.654,0,95.23,0,143.17C178.97,404.543,129.277,404.543,79.167,404.543z M118.35,326.728
			c0,5.062,0,9.579,0,14.567c9.634,0,18.865,0,28.547,0c0,9.557,0,18.636,0,27.884c4.7,0,8.918,0,13.854,0
			c0-9.537,0-18.723,0-28.347c9.783,0,18.854,0,27.96,0c0-4.877,0-9.279,0-14.193c-9.373,0-18.444,0-28.15,0
			c0-9.555,0-18.611,0-27.95c-4.875,0-9.104,0-13.886,0c0,9.378,0,18.45,0,28.039C136.909,326.728,127.681,326.728,118.35,326.728z"
			/>
		<path fill-rule="evenodd" clip-rule="evenodd" fill="#FFFFFF" d="M163.696,199.995c1.75-5.2,3.032-9.597,4.696-13.847
			c5.787-14.783,15.722-27.144,24.18-40.325c5.798-9.035,13.026-17.153,19.618-25.678c1.521-1.967,3.101-3.891,4.575-5.893
			c4.154-5.64,9.768-6.812,15.708-3.177c2.373,1.452,5.306,2.557,6.819,4.658c1.141,1.583,1.423,5.177,0.377,6.714
			c-6.932,10.198-15.063,19.644-21.32,30.214c-4.554,7.693-7.232,16.563-8.48,25.706c-1.31,9.589-1.552,9.482-11.448,9.63
			c-2.42,0.035-5.03,0.259-7.206,1.199c-7.572,3.275-14.976,6.939-22.492,10.348C167.771,199.975,166.53,199.768,163.696,199.995z"
			/>
		<path fill-rule="evenodd" clip-rule="evenodd" fill="#FFFFFF" d="M160.774,163.218c0.99-0.857,2.194-1.562,2.938-2.596
			c9.102-12.657,18.031-25.44,27.245-38.015c3.44-4.695,7.485-8.95,11.309-13.36c0.748-0.863,1.67-2.03,2.635-2.161
			c2.443-0.332,4.956-0.155,7.441-0.183c-0.233,2.628,0.467,5.93-0.859,7.769c-5.938,8.228-12.907,15.727-18.656,24.072
			c-8.809,12.788-17.013,26-25.254,39.169c-1.665,2.661-2.355,5.931-3.934,10.071c-4.254-8.836-10.059-16.143-2.719-24.919
			C160.916,163.071,160.774,163.218,160.774,163.218z"/>
		<path fill-rule="evenodd" clip-rule="evenodd" d="M118.35,326.728c9.331,0,18.559,0,28.326,0c0-9.589,0-18.661,0-28.039
			c4.782,0,9.01,0,13.886,0c0,9.339,0,18.396,0,27.95c9.706,0,18.778,0,28.15,0c0,4.914,0,9.316,0,14.193c-9.106,0-18.177,0-27.96,0
			c0,9.624,0,18.81,0,28.347c-4.936,0-9.155,0-13.854,0c0-9.248,0-18.327,0-27.884c-9.683,0-18.913,0-28.547,0
			C118.35,336.307,118.35,331.789,118.35,326.728z"/>
	</g>
</g>
</svg>
